<?xml version="1.0" encoding="UTF-8" standalone="no"?>
<!DOCTYPE svg PUBLIC "-//W3C//DTD SVG 1.1//EN" "http://www.w3.org/Graphics/SVG/1.1/DTD/svg11.dtd">
<svg width="12.00" height="12.00" viewBox="0.00 0.00 100.00 100.00" xmlns="http://www.w3.org/2000/svg" xmlns:xlink="http://www.w3.org/1999/xlink">
<g stroke-linecap="round" id="Layer_3">
<path d="M47.71,62.13 C48.03,62.24 48.94,62.78 49.01,62.86 C49.05,62.89 48.98,63.20 49.17,63.34 C49.83,63.80 54.13,64.23 57.77,63.97 C61.59,63.65 65.50,62.42 69.03,60.46 C72.46,58.52 77.89,54.27 80.38,51.44 C82.32,49.19 85.00,44.24 85.80,41.26 C86.46,38.70 86.77,34.22 86.39,31.62 C85.95,28.83 84.20,23.55 82.42,20.69 C80.63,17.87 76.33,12.95 74.06,11.49 C71.75,10.05 66.28,8.46 63.26,8.44 C60.25,8.46 54.15,9.61 51.03,10.65 C47.96,11.70 43.25,14.01 40.41,16.17 C38.65,17.53 34.76,22.07 34.03,23.83 C33.04,26.33 32.11,31.02 32.00,34.30 C31.95,36.52 32.73,41.14 33.33,43.39 C34.66,48.27 36.16,52.23 38.13,54.48 C42.64,59.51 45.41,61.30 47.71,62.13 Z" fill="none" stroke="rgb(0, 0, 0)" stroke-width="16.00" stroke-opacity="1.00" stroke-linejoin="round"/>
<path d="M40.85,58.25 C40.73,58.19 38.98,59.53 37.82,60.67 C36.30,62.17 20.22,81.49 14.32,88.56" fill="none" stroke="rgb(0, 0, 0)" stroke-width="16.00" stroke-opacity="1.00" stroke-linejoin="round"/>
</g>
</svg>
